<svg width="20" height="19" viewBox="0 0 20 19" fill="none" xmlns="http://www.w3.org/2000/svg">
<path d="M10.001 0.00195312C4.47895 0.00195312 0.00195312 4.25373 0.00195312 9.49794C0.00195312 14.2369 3.65795 18.1648 8.43895 18.88V12.2435H5.89895V9.49794H8.43895V7.40576C8.43895 5.02393 9.93195 3.7105 12.215 3.7105C13.309 3.7105 14.455 3.8957 14.455 3.8957V6.23099H13.191C11.951 6.23099 11.563 6.96415 11.563 7.71536V9.49604H14.334L13.891 12.2416H11.563V18.8781C16.344 18.1667 20 14.2379 20 9.49794C20 4.25373 15.523 0.00195312 10.001 0.00195312V0.00195312Z" fill="#BDBDBD"/>
</svg>
