<svg width="20" height="21" viewBox="0 0 20 21" fill="none" xmlns="http://www.w3.org/2000/svg">
<path d="M17.1667 9.54079H19.0834C19.0834 4.62454 15.3717 0.916748 10.4488 0.916748V2.83341C14.3415 2.83341 17.1667 5.65379 17.1667 9.54079Z" fill="#BDBDBD"/>
<path d="M10.4584 6.93699C12.4737 6.93699 13.3334 7.84697 13.3334 9.98039H15.25C15.25 6.70873 13.549 4.90806 10.4584 4.90806V6.93699ZM13.7378 12.4587C13.5536 12.2816 13.3116 12.1871 13.0629 12.1952C12.8142 12.2033 12.5782 12.3135 12.4047 12.5024L10.1114 14.999C9.55944 14.8874 8.44969 14.5211 7.30736 13.3149C6.16503 12.1047 5.81907 10.9269 5.71653 10.3466L8.07307 7.91798C8.25171 7.73449 8.35591 7.48462 8.3636 7.22125C8.37129 6.95788 8.28187 6.70167 8.11428 6.50686L4.57323 2.38508C4.40557 2.18965 4.17254 2.0711 3.92363 2.05462C3.67473 2.03814 3.42956 2.12503 3.24019 2.29682L1.16061 4.18474C0.994924 4.36077 0.896032 4.59504 0.882693 4.84313C0.868318 5.09675 0.594234 11.1044 4.9949 15.7649C8.83398 19.8278 13.6429 20.1251 14.9673 20.1251C15.1609 20.1251 15.2797 20.119 15.3114 20.1169C15.5457 20.1031 15.7669 19.9979 15.9324 19.8217L17.7149 17.6193C17.8773 17.419 17.9595 17.1595 17.9441 16.8961C17.9287 16.6326 17.8169 16.3858 17.6324 16.2082L13.7378 12.4587Z" fill="#BDBDBD"/>
</svg>
